<?xml version="1.0" standalone="no"?>
<!DOCTYPE svg PUBLIC "-//W3C//DTD SVG 20010904//EN"
 "http://www.w3.org/TR/2001/REC-SVG-20010904/DTD/svg10.dtd">
<svg version="1.0" xmlns="http://www.w3.org/2000/svg"
 width="200.000000pt" height="200.000000pt" viewBox="0 0 200.000000 200.000000"
 preserveAspectRatio="xMidYMid meet">
<metadata>
Created by potrace 1.14, written by Peter Selinger 2001-2017
</metadata>
<g transform="translate(0.000000,200.000000) scale(0.100000,-0.100000)"
fill="#000000" stroke="none">
<path d="M500 1840 l0 -80 -170 0 -170 0 0 -90 0 -90 -80 0 -80 0 0 -80 0 -80
80 0 80 0 0 -80 0 -80 -80 0 -80 0 0 -170 0 -170 80 0 80 0 0 -90 0 -90 90 0
90 0 0 90 0 90 80 0 80 0 0 -170 0 -170 -80 0 -80 0 0 -80 0 -80 80 0 80 0 0
-90 0 -90 80 0 80 0 0 -80 0 -80 340 0 340 0 0 80 0 80 80 0 80 0 0 90 0 90
80 0 80 0 0 80 0 80 90 0 90 0 0 170 0 170 80 0 80 0 0 250 0 250 -80 0 -80 0
0 80 0 80 -90 0 -90 0 0 90 0 90 -160 0 -160 0 0 80 0 80 -170 0 -170 0 0 -80
0 -80 -80 0 -80 0 0 80 0 80 -170 0 -170 0 0 -80z"/>
</g>
</svg>
